<svg xmlns="http://www.w3.org/2000/svg" width="512" height="512" viewBox="0 0 512 512" version="1.1">
	<path d="M 0 98 L 0 150 55.500 150 L 111 150 111 189 L 111 228 69.991 228 L 28.982 228 29.241 280.250 L 29.500 332.500 70.250 332.761 L 111 333.022 111 398.011 C 111 455.112, 110.818 463, 109.500 463 C 108.675 463, 108 463.675, 108 464.500 C 108 465.818, 115.722 466, 171.500 466 L 235 466 235 256 L 235 46 117.500 46 L 0 46 0 98 M 274 256 L 274 466 337.500 466 L 401 466 401 399.500 L 401 333 440 333 L 479 333 479 280.500 L 479 228 440 228 L 401 228 401 189 L 401 150 456.500 150 L 512 150 512 98 L 512 46 393 46 L 274 46 274 256" stroke="none" fill="black" fill-rule="evenodd"/>
</svg>